<?xml version="1.0" encoding="UTF-8" standalone="no"?>
<!DOCTYPE svg PUBLIC "-//W3C//DTD SVG 1.1//EN" "http://www.w3.org/Graphics/SVG/1.1/DTD/svg11.dtd">
<svg width="100%" height="100%" viewBox="0 0 1025 1026" version="1.1" xmlns="http://www.w3.org/2000/svg" xmlns:xlink="http://www.w3.org/1999/xlink" xml:space="preserve" xmlns:serif="http://www.serif.com/" style="fill-rule:evenodd;clip-rule:evenodd;stroke-linejoin:round;stroke-miterlimit:2;">
    <g transform="matrix(1,0,0,1,0.456525,0.514135)">
        <g id="Hintergrund">
            <path d="M1023.999,30.5L1023.999,1023.999C1021.851,1025.156 1021.661,1023.999 993.5,1023.999L0,1023.999C-1.027,1022.092 0,1019.666 0,1017.5L0,0C2.148,-1.157 2.338,0 30.5,0L1023.999,0C1025.156,2.148 1023.999,2.338 1023.999,30.5Z" style="fill:rgb(18,28,51);"/>
            <path d="M758.935,591.503C757.628,611.958 761.018,657.843 689.256,698.047C673.762,706.726 638.24,720.908 636.189,718.801C632.128,714.631 634.604,695.644 577.501,695.794C563.139,695.831 525.006,694.738 515.315,729.448C514.211,733.404 515.934,739.097 513.465,739.252C494.737,740.432 356.056,739.863 288.668,669.339C262.851,642.32 263.816,629.667 263.447,578.501C263.177,541.091 252.612,378.539 376.735,314.973C464.359,270.099 634.645,269.987 707.955,364.146C769.146,442.74 760.456,550.233 758.935,591.503Z" style="fill:rgb(246,245,245);"/>
            <path d="M714.073,546.485C709.626,595.623 672.125,628.147 640.556,637.658C619.33,644.052 618.906,642.719 478.501,642.847C402.289,642.916 384.915,645.617 352.148,621.975C282.437,571.676 300.431,461.279 387.407,437.14C404.812,432.31 405.066,433.439 584.5,433.321C596.895,433.313 669.644,424.798 703.951,491.272C716.73,516.032 714.408,539.983 714.073,546.485Z" style="fill:rgb(17,31,56);"/>
            <path d="M858.848,528.501C858.877,549.645 864.157,592.134 813.504,604.516C809.721,605.44 812.071,616.445 793.813,650.667C786.702,663.996 748.404,735.779 641.447,762.224C638.21,763.025 640.969,760.314 640.733,742.493C640.685,738.944 640.309,739.029 640.229,735.481C640.161,732.521 669.563,728.319 704.801,705.974C799.448,645.956 788.438,551.604 788.691,517.5C789.229,444.979 772.209,359.1 690.559,288.43C580.837,193.463 363.999,196.713 270.713,365.617C229.595,440.064 236.33,505.489 235.559,579.499C235.363,598.261 235.851,604.743 234.367,605.152C214.865,610.523 187.857,602.555 174.898,582.229C163.705,564.674 165.004,560.287 165.096,495.492C165.103,490.891 161.45,455.549 198.292,438.055C207.317,433.77 210.301,435.551 211.229,431.442C249.749,260.858 389.065,202.586 476.466,193.238C630.321,176.783 774.066,265.395 811.796,426.425C813.448,433.479 812.752,434.125 814.438,434.634C814.636,434.693 839.639,437.97 853.241,464.635C859.805,477.502 858.915,486.755 858.848,528.501Z" style="fill:rgb(52,66,92);"/>
            <path d="M421.561,581.885C366.002,590.324 349.971,515.842 395.419,496.312C439.004,477.583 479.707,531.927 446.204,568.237C436.77,578.463 423.76,581.39 421.561,581.885Z" style="fill:rgb(20,210,254);"/>
            <path d="M611.479,581.02C611.323,581.017 587.428,583.435 573.052,562.835C544.188,521.474 590.728,474.671 630.737,497.085C667.944,517.931 658.925,573.421 614.527,580.655C613.517,580.819 612.489,580.856 611.479,581.02Z" style="fill:rgb(19,210,254);"/>
        </g>
    </g>
</svg>
